<?xml version="1.0" encoding="utf-8"?>
<!-- Generator: Adobe Illustrator 26.1.0, SVG Export Plug-In . SVG Version: 6.00 Build 0)  -->
<svg version="1.1" id="Layer_1" xmlns:serif="http://www.serif.com/"
	 xmlns="http://www.w3.org/2000/svg" xmlns:xlink="http://www.w3.org/1999/xlink" x="0px" y="0px" viewBox="0 0 456 456"
	 style="enable-background:new 0 0 456 456;" xml:space="preserve">
<style type="text/css">
	.st0{fill:#FFE1AE;}
	.st1{fill:#B1D4E0;}
</style>
<path class="st0" d="M253.79,221.48c5.97-5.97,15.77-5.78,21.49,0.58c5.37,5.96,4.53,15.28-1.14,20.95l-31.2,31.2
	c-27.68,27.68-72.57,27.68-100.25,0l0,0C128.9,260.42,122,242.25,122,224.09c0-18.16,6.9-36.33,20.69-50.13l51.93-51.93
	c5-5,12.92-6.15,18.81-2.24c8.1,5.38,8.9,16.41,2.4,22.9l-52.2,52.2c-8.01,8.02-12.02,18.6-12.02,29.19
	c0,10.59,4.01,21.17,12.02,29.18c8.02,8.02,18.6,12.02,29.19,12.02c10.59,0,21.17-4.01,29.18-12.02L253.79,221.48L253.79,221.48z"/>
<path class="st1" d="M203.2,234.64c-5.97,5.97-15.77,5.78-21.49-0.58c-5.37-5.96-4.53-15.28,1.14-20.95l32.02-32.02
	c27.23-27.23,71.36-27.25,98.59-0.02c0.28,0.28,0.56,0.56,0.84,0.84C328.1,195.7,335,213.87,335,232.03s-6.9,36.33-20.69,50.12
	l-51.61,51.61c-5.67,5.67-15,6.5-20.95,1.14c-6.35-5.72-6.55-15.52-0.58-21.49l52.2-52.2c8.02-8.01,12.02-18.6,12.02-29.18
	s-4.01-21.17-12.02-29.18c-8.01-8.02-18.6-12.02-29.18-12.02s-21.17,4.01-29.19,12.02L203.2,234.64L203.2,234.64z"/>
</svg>
